# xmcd CD database file
#
# Track frame offsets:
#	150
#	10942
#	63889
#	84131
#	107041
#	114690
#	135205
#
# Disc length: 2437 seconds
#
# Revision: 4
# Processed by: cddbd v1.5PL3 Copyright (c) Steve Scherf et al.
# Submitted via: CDex 1.51
#
DISCID=49098307
DTITLE=Enigma - M C M X C  a.D.
DYEAR=1990
DGENRE=New Age
TTITLE0=The voice of Enigma
TTITLE1=Priciples of lust:a)Sadness b)Find love c)Sadeness
TTITLE2=Callas went away
TTITLE3=Mea culpa
TTITLE4=The voice and the snake
TTITLE5=Knocking on forbidden doors
TTITLE6=Back to the rivers of belief: a) Way to eternity b
EXTD=YEAR: 1990
EXTT0=
EXTT1=
EXTT2=
EXTT3=
EXTT4=
EXTT5=
EXTT6=
PLAYORDER=
